<?xml version="1.0" encoding="UTF-8" standalone="no"?> <svg xmlns="http://www.w3.org/2000/svg" viewBox="0 0 64 64"><defs><style>.cls-1{fill:#35353d;}</style></defs><title>Asset 28</title><g id="Layer_2" data-name="Layer 2"><g id="Layer_1-2" data-name="Layer 1"><path class="cls-1" d="M62.8,57,41.14,35.36,56.38,20.29a2.72,2.72,0,0,0-1.12-4.54L3.51.12A2.7,2.7,0,0,0,.81.79a2.73,2.73,0,0,0-.7,2.7L15.33,55.23a2.74,2.74,0,0,0,1.93,1.87,2.71,2.71,0,0,0,.68.09,2.74,2.74,0,0,0,1.92-.79L35.33,41.11,57,62.8A4.08,4.08,0,0,0,62.8,57ZM19.27,49.33,6.76,6.79,49.3,19.64Z"/></g></g></svg>